<svg xmlns="http://www.w3.org/2000/svg" width="37" height="37" viewBox="0 0 37 37">
  <g id="Group_47241" data-name="Group 47241" transform="translate(-1361 -97)">
    <path id="email" d="M20.6,6.75H3.662A1.412,1.412,0,0,0,2.25,8.162V19.456a1.412,1.412,0,0,0,1.412,1.412H20.6a1.412,1.412,0,0,0,1.412-1.412V8.162A1.412,1.412,0,0,0,20.6,6.75ZM19.051,8.162l-6.918,4.786L5.215,8.162ZM3.662,19.456V8.8l8.069,5.584a.706.706,0,0,0,.8,0L20.6,8.8V19.456Z" transform="translate(1367.535 101.544)" fill="#87c332"/>
    <g id="Ellipse_1" data-name="Ellipse 1" transform="translate(1361 97)" fill="none" stroke="#87c332" stroke-width="1.4">
      <circle cx="18.5" cy="18.5" r="18.5" stroke="none"/>
      <circle cx="18.5" cy="18.5" r="17.8" fill="none"/>
    </g>
  </g>
</svg>
