<svg xmlns="http://www.w3.org/2000/svg" width="37" height="37" viewBox="0 0 37 37">
  <g id="Group_47242" data-name="Group 47242" transform="translate(-1361 -97)">
    <g id="Ellipse_1" data-name="Ellipse 1" transform="translate(1361 97)" fill="none" stroke="#87c332" stroke-width="1.4">
      <circle cx="18.5" cy="18.5" r="18.5" stroke="none"/>
      <circle cx="18.5" cy="18.5" r="17.8" fill="none"/>
    </g>
    <g id="telephone" transform="translate(1368.531 104.705)">
      <path id="Path_1" data-name="Path 1" d="M5.539,2.731a.82.82,0,0,0-1.226-.076L3.063,3.905A2.066,2.066,0,0,0,2.52,6.042,21.23,21.23,0,0,0,7.557,14.03a21.232,21.232,0,0,0,7.987,5.036,2.068,2.068,0,0,0,2.137-.543l1.251-1.251a.82.82,0,0,0-.077-1.226l-2.787-2.168a.82.82,0,0,0-.7-.148l-2.645.661a2.109,2.109,0,0,1-2-.555L7.75,10.868a2.109,2.109,0,0,1-.555-2L7.857,6.22a.82.82,0,0,0-.148-.7ZM3.4,1.745a2.109,2.109,0,0,1,3.156.2L8.725,4.728a2.1,2.1,0,0,1,.382,1.8L8.445,9.179a.82.82,0,0,0,.215.779l2.97,2.968a.82.82,0,0,0,.779.215l2.645-.661a2.109,2.109,0,0,1,1.806.382l2.787,2.167a2.108,2.108,0,0,1,.2,3.156l-1.251,1.251a3.359,3.359,0,0,1-3.476.848,22.519,22.519,0,0,1-8.47-5.342A22.519,22.519,0,0,1,1.3,6.471a3.36,3.36,0,0,1,.848-3.478L3.4,1.744Z" transform="translate(0 0)" fill="#87c332" fill-rule="evenodd"/>
    </g>
  </g>
</svg>
